<svg width="0" height="0" class="hidden">
  <symbol xmlns="http://www.w3.org/2000/svg" viewBox="0 0 18 15" id="agent">
    <path d="M0.000673743 4.66875C0.0872497 4.55499 0.161361 4.42889 0.262086 4.32881C1.61799 2.9804 2.97794 1.63565 4.33688 0.28991C4.66028 -0.0303464 4.91462 -0.0283448 5.2397 0.296915C5.60217 0.659873 5.96431 1.02283 6.32645 1.38645C6.36115 1.42115 6.39315 1.45818 6.44267 1.51222C6.34902 1.60029 6.25874 1.68202 6.1725 1.76743C5.70829 2.22579 5.25823 2.69917 4.77852 3.14119C3.92691 3.92549 4.06301 5.10743 5.09485 5.72859C6.08895 6.32707 7.29192 6.21498 8.15297 5.43803C8.44638 5.17348 8.6923 5.16481 8.96617 5.41001C9.86697 6.21598 10.9952 6.33408 12.0485 5.7326C12.063 5.72426 12.0779 5.71725 12.1014 5.70491C12.128 5.72726 12.159 5.74928 12.1857 5.77597C13.1646 6.74441 14.1442 7.71285 15.1218 8.68296C15.3994 8.95818 15.4695 9.27143 15.3307 9.57434C15.108 10.0594 14.4979 10.1742 14.0981 9.79385C13.6938 9.40987 13.3078 9.00722 12.9032 8.62324C12.8116 8.53617 12.6842 8.46178 12.5616 8.43643C12.3406 8.39073 12.1425 8.51049 12.0499 8.69997C11.9566 8.89112 11.9872 9.10296 12.1493 9.26609C12.534 9.65407 12.9254 10.0357 13.3118 10.422C13.3822 10.4924 13.4526 10.5675 13.5048 10.6512C13.6982 10.9618 13.6305 11.3648 13.3522 11.6016C13.0639 11.8472 12.6492 11.8635 12.3703 11.605C11.9451 11.2106 11.5443 10.791 11.1235 10.3923C11.0315 10.3049 10.9055 10.2289 10.7833 10.2018C10.566 10.1535 10.3642 10.2736 10.2695 10.462C10.1742 10.6522 10.2022 10.865 10.3635 11.0288C10.7196 11.3901 11.0824 11.7451 11.4422 12.1027C11.5055 12.1654 11.5705 12.2268 11.6288 12.2942C11.9071 12.6151 11.898 13.0434 11.6093 13.3313C11.3169 13.6226 10.8719 13.6313 10.5495 13.3437C10.3955 13.2066 10.2483 13.0611 10.1085 12.9097C9.69146 12.4586 9.2259 12.104 8.55149 12.1274C8.54172 11.7271 8.44301 11.3698 8.20653 11.0585C7.97409 10.7523 7.67023 10.5451 7.28417 10.4307C7.60488 9.67976 7.54794 8.97786 6.96313 8.39806C6.38203 7.8216 5.67999 7.75722 4.91529 8.07514C4.68892 7.41694 4.24559 6.98193 3.5449 6.85716C2.85263 6.73407 2.28028 6.97526 1.80193 7.51069C1.74601 7.35089 1.69514 7.21478 1.65067 7.07701C1.51559 6.657 1.28786 6.29405 0.973559 5.9828C0.747855 5.75929 0.520467 5.53677 0.301837 5.30659C0.192354 5.1915 0.100051 5.06006 0 4.93596C0.000673743 4.84622 0.000673743 4.75748 0.000673743 4.66875Z"></path>
    <path d="M15.6268 7.77657C14.443 6.60396 13.2994 5.47139 12.1503 4.33314C12.1075 4.37117 12.0728 4.3982 12.0422 4.42922C11.3937 5.08241 10.4346 5.10143 9.67799 4.65974C9.38929 4.49127 9.11642 4.29712 8.76742 4.26075C8.33353 4.21572 7.9468 4.31713 7.61195 4.59702C7.36334 4.80519 7.11406 5.00835 6.78157 5.07641C6.2227 5.19083 5.73996 5.05172 5.34279 4.64873C5.14639 4.44957 5.16829 4.16701 5.38456 3.95017C5.75411 3.57887 6.12837 3.21191 6.50095 2.84295C6.78224 2.5644 7.06589 2.28818 7.34414 2.00662C7.68303 1.66401 8.08728 1.48987 8.57507 1.49654C9.10733 1.50388 9.63958 1.49387 10.1718 1.49954C10.5394 1.50355 10.8446 1.38412 11.1006 1.11724C11.4014 0.803654 11.7161 0.502747 12.0263 0.19817C12.2938 -0.0643736 12.5683 -0.0683768 12.8335 0.193833C14.2332 1.57827 15.6315 2.96305 17.0285 4.34916C17.292 4.6107 17.2859 4.88225 17.0188 5.14846C16.6634 5.50275 16.3066 5.8557 15.9495 6.20831C15.6534 6.50055 15.5513 6.84682 15.6224 7.25548C15.649 7.40827 15.6268 7.56873 15.6268 7.77657Z"></path>
    <path d="M3.94005 12.1361C3.62878 12.126 3.39129 11.9909 3.25856 11.7077C3.13021 11.4342 3.15986 11.1699 3.3448 10.9268C3.37512 10.8871 3.40881 10.8494 3.44418 10.8143C4.01012 10.2529 4.57472 9.69043 5.1437 9.13198C5.46069 8.82107 5.85281 8.78304 6.17486 9.02156C6.52487 9.28077 6.58989 9.76549 6.30624 10.0941C6.15027 10.2749 5.97274 10.438 5.80295 10.6068C5.37984 11.0272 4.95471 11.4458 4.53227 11.8665C4.36822 12.03 4.18193 12.1404 3.94005 12.1361Z"></path>
    <path d="M2.15228 10.3713C1.83966 10.36 1.60452 10.2205 1.47314 9.93796C1.34581 9.66441 1.35962 9.38285 1.56848 9.16101C1.94982 8.75568 2.34362 8.36003 2.7546 7.98473C3.04734 7.71752 3.49842 7.76089 3.77128 8.04078C4.04314 8.31967 4.06807 8.76269 3.7952 9.05025C3.42363 9.44223 3.03892 9.82287 2.63973 10.1872C2.51778 10.2986 2.33048 10.3396 2.17316 10.413C2.16643 10.3993 2.15935 10.3853 2.15228 10.3713Z"></path>
    <path d="M5.71705 13.9395C5.3886 13.8851 5.15481 13.7387 5.03152 13.4544C4.91227 13.1802 4.93282 12.9003 5.14471 12.6788C5.52571 12.2805 5.91513 11.8892 6.32039 11.5156C6.60235 11.2553 7.0514 11.2917 7.32561 11.5606C7.59477 11.8245 7.64564 12.2675 7.39097 12.5417C7.00121 12.9617 6.58888 13.362 6.1661 13.7497C6.05392 13.8528 5.86898 13.8784 5.71705 13.9395Z"></path>
    <path d="M8.23786 15C7.9047 14.954 7.67057 14.8119 7.53683 14.5326C7.40309 14.2537 7.43375 13.9789 7.63655 13.741C7.76995 13.5849 7.9175 13.4388 8.07212 13.303C8.37733 13.0348 8.822 13.0481 9.10598 13.3233C9.39165 13.5999 9.4159 14.0356 9.14809 14.3452C9.01031 14.5046 8.86208 14.6611 8.69331 14.7862C8.56126 14.8836 8.39114 14.9306 8.23786 15Z"></path>
  </symbol>
  <symbol xmlns="http://www.w3.org/2000/svg" viewBox="0 0 18 4" id="elipsis">
    <path d="M9 3C9.55228 3 10 2.55228 10 2C10 1.44772 9.55228 1 9 1C8.44772 1 8 1.44772 8 2C8 2.55228 8.44772 3 9 3Z" stroke="#2B3639" stroke-width="2" stroke-linecap="round" stroke-linejoin="round"></path>
    <path d="M16 3C16.5523 3 17 2.55228 17 2C17 1.44772 16.5523 1 16 1C15.4477 1 15 1.44772 15 2C15 2.55228 15.4477 3 16 3Z" stroke="#2B3639" stroke-width="2" stroke-linecap="round" stroke-linejoin="round"></path>
    <path d="M2 3C2.55228 3 3 2.55228 3 2C3 1.44772 2.55228 1 2 1C1.44772 1 1 1.44772 1 2C1 2.55228 1.44772 3 2 3Z" stroke="#2B3639" stroke-width="2" stroke-linecap="round" stroke-linejoin="round"></path>
  </symbol>
  <symbol fill="none" xmlns="http://www.w3.org/2000/svg" viewBox="0 0 21 19" id="exit">
    <path d="M15.75 6L19.25 9.5M19.25 9.5L15.75 13M19.25 9.5H7.875M13.125 2.67853C12.0096 2.00849 10.7146 1.625 9.33333 1.625C5.14517 1.625 1.75 5.15076 1.75 9.5C1.75 13.8492 5.14517 17.375 9.33333 17.375C10.7146 17.375 12.0096 16.9915 13.125 16.3215" stroke="#2B3639" stroke-width="2" stroke-linecap="round" stroke-linejoin="round"></path>
  </symbol>
  <symbol xmlns="http://www.w3.org/2000/svg" viewBox="0 0 19 13" id="gift-card">
    <path d="M18.3295 11.5278C18.2707 11.689 18.23 11.8602 18.1502 12.0099C17.8508 12.5709 17.3788 12.8841 16.7389 12.8851C13.3571 12.8908 9.97542 12.888 6.59322 12.888C6.55209 12.888 6.51096 12.888 6.45692 12.888C6.45692 10.8071 6.45692 8.73579 6.45692 6.63579C6.5057 6.70178 6.54444 6.74961 6.57839 6.8003C6.91891 7.3106 7.25703 7.82281 7.60042 8.33167C7.73098 8.52488 7.91559 8.62197 8.1528 8.5751C8.38666 8.52919 8.56218 8.36515 8.57462 8.12937C8.58179 7.99211 8.53349 7.83333 8.46079 7.71424C8.24749 7.36321 8.0098 7.027 7.78215 6.68505C7.74294 6.62622 7.70611 6.56644 7.67598 6.51909C7.91559 6.50092 8.15949 6.51288 8.3881 6.45979C8.90652 6.33927 9.281 6.0198 9.49334 5.53007C9.55169 5.39568 9.62486 5.36746 9.75925 5.36746C12.6163 5.37129 15.4729 5.37033 18.33 5.37033C18.3295 7.42251 18.3295 9.47517 18.3295 11.5278ZM13.459 8.59231C14.174 8.59231 14.889 8.59471 15.604 8.59136C15.9325 8.58992 16.1788 8.35558 16.1803 8.05667C16.1817 7.75872 15.9344 7.5196 15.6073 7.51912C14.1773 7.51673 12.7474 7.51577 11.3179 7.52199C11.2055 7.52247 11.0811 7.56216 10.9831 7.61955C10.7827 7.73768 10.7043 7.9768 10.7674 8.19202C10.8406 8.44119 11.0362 8.58945 11.314 8.5904C12.029 8.59423 12.744 8.59231 13.459 8.59231ZM13.459 9.66599C12.7502 9.66599 12.041 9.66456 11.3322 9.66647C10.9917 9.66743 10.7397 9.90081 10.7416 10.2045C10.743 10.5029 10.9903 10.7382 11.3183 10.7387C12.7483 10.7411 14.1783 10.7435 15.6078 10.7334C15.7388 10.7325 15.8871 10.6679 15.9961 10.5895C16.1769 10.4589 16.2204 10.2169 16.1406 10.0094C16.0602 9.80086 15.8584 9.66695 15.6044 9.66647C14.8885 9.66456 14.174 9.66599 13.459 9.66599Z"></path>
    <path d="M18.3295 4.29618C15.472 4.29618 12.6149 4.29522 9.75733 4.29905C9.62151 4.29905 9.55217 4.26748 9.49286 4.13453C9.07583 3.2005 7.95385 2.86572 7.08486 3.4095C6.87874 3.53863 6.6793 3.67732 6.45692 3.82414C6.45692 2.54195 6.45692 1.28271 6.45692 3.82602e-05C6.52483 3.82602e-05 6.59418 3.82602e-05 6.66304 3.82602e-05C9.99168 3.82602e-05 13.3203 3.82602e-05 16.6489 3.82602e-05C17.4974 3.82602e-05 18.088 0.464421 18.2994 1.29562C18.3051 1.3181 18.319 1.33867 18.329 1.36019C18.3295 2.33917 18.3295 3.31767 18.3295 4.29618Z"></path>
    <path d="M5.36124 6.6157C5.36124 8.72862 5.36124 10.7947 5.36124 12.8875C5.30529 12.8875 5.24837 12.8875 5.19194 12.8875C4.00492 12.8875 2.8179 12.8885 1.63088 12.887C0.706416 12.8861 0.00195127 12.1821 0.00147302 11.2576C0.000516512 9.36087 0.000994764 7.46412 0.000994764 5.56689C0.000994764 5.50855 0.000994764 5.44972 0.000994764 5.38037C0.757111 5.38037 1.49984 5.38037 2.24304 5.38037C2.60316 6.21253 3.2268 6.59753 4.16083 6.4904C3.93605 6.82804 3.7194 7.15421 3.50276 7.48038C3.4401 7.5746 3.37458 7.6669 3.31576 7.76398C3.15937 8.02176 3.22011 8.32449 3.45828 8.49093C3.69501 8.65592 4.00779 8.60953 4.18713 8.36467C4.36313 8.12458 4.52143 7.87159 4.68691 7.62386C4.90356 7.30008 5.1202 6.97582 5.36124 6.6157Z"></path>
    <path d="M5.36316 0.000516512C5.36316 1.28367 5.36316 2.54004 5.36316 3.82749C5.16325 3.69501 4.98247 3.57402 4.80025 3.45493C3.8691 2.84612 2.75525 3.17228 2.288 4.18522C2.26552 4.23448 2.19091 4.29092 2.14022 4.29139C1.43671 4.29857 0.73272 4.29618 0.000516512 4.29618C0.000516512 4.23353 0.000516512 4.17661 0.000516512 4.12018C0.000516512 3.28467 -0.000918244 2.44965 0.000994764 1.61414C0.00290777 0.712156 0.710721 0.00242952 1.61127 0.000994764C2.80451 -0.000918244 3.99775 0.000516512 5.19099 0.000516512C5.24359 0.000516512 5.29668 0.000516512 5.36316 0.000516512Z"></path>
    <path d="M4.9576 4.8323C4.64004 5.03651 4.36552 5.23451 4.07092 5.39663C3.83323 5.52768 3.51567 5.42868 3.34876 5.21346C3.18041 4.99586 3.17659 4.68643 3.33967 4.465C3.50132 4.24548 3.81697 4.1374 4.05609 4.26605C4.35691 4.42722 4.63669 4.62808 4.9576 4.8323Z"></path>
    <path d="M6.86439 4.8323C7.17238 4.63143 7.44212 4.4363 7.73002 4.27418C7.97106 4.13835 8.29819 4.23496 8.46701 4.45543C8.64253 4.685 8.63583 5.01021 8.45075 5.23116C8.26854 5.44876 7.93854 5.51955 7.69033 5.37177C7.42012 5.21107 7.16282 5.02886 6.86439 4.8323Z"></path>
  </symbol>
  <symbol xmlns="http://www.w3.org/2000/svg" viewBox="0 0 15 15" id="history">
    <path d="M14.9999 6.73661C14.8924 6.98019 14.7072 7.06346 14.4416 7.06273C12.4569 7.05539 10.4725 7.05869 8.48782 7.05869C8.13276 7.05869 7.97137 6.89729 7.97137 6.54219C7.97137 4.54769 7.97467 2.55319 7.96734 0.558327C7.96624 0.292737 8.0495 0.107483 8.29305 0C8.48818 0 8.68368 0 8.87882 0C9.04681 0.0220103 9.2159 0.0399853 9.38316 0.0671313C10.8008 0.296405 12.0277 0.908291 13.0449 1.9237C14.0158 2.89288 14.6349 4.05319 14.8858 5.40499C14.9298 5.6427 14.9621 5.88261 14.9999 6.12142C14.9999 6.32649 14.9999 6.53155 14.9999 6.73661Z"></path>
    <path d="M14.9999 8.87491C14.9624 9.10418 14.9309 9.33492 14.8869 9.5631C14.548 11.3236 13.6468 12.7285 12.2034 13.7869C11.757 14.1141 11.2692 14.3672 10.7542 14.5675C10.4736 14.6764 10.2484 14.5649 10.1343 14.2608C9.62781 12.9079 9.12237 11.5543 8.61729 10.2007C8.41812 9.66728 8.23143 9.12913 8.01795 8.60198C7.8683 8.23221 8.12726 7.92957 8.48195 7.93177C10.4681 7.94424 12.4547 7.94131 14.4409 7.93397C14.7064 7.93287 14.892 8.01614 14.9999 8.26009C14.9999 8.46478 14.9999 8.66985 14.9999 8.87491Z"></path>
    <path d="M7.09217 5.2201C7.09217 6.20103 7.09107 7.18195 7.094 8.16324C7.09437 8.24358 7.10977 8.32832 7.13765 8.40389C7.81879 10.2366 8.50285 12.0686 9.18656 13.9006C9.33181 14.2902 9.23131 14.4842 8.83664 14.6236C8.00768 14.9171 7.15232 15.0404 6.27862 14.9886C4.90902 14.9076 3.67439 14.4435 2.59125 13.5983C1.30124 12.5913 0.455049 11.2887 0.138873 9.68195C-0.269368 7.60895 0.225069 5.74321 1.58771 4.12839C2.57291 2.96075 3.83358 2.22561 5.33083 1.92186C5.75741 1.83529 6.20013 1.81915 6.63661 1.7909C6.90987 1.77329 7.09143 1.97029 7.0918 2.24762C7.0929 3.23844 7.09217 4.22927 7.09217 5.2201Z"></path>
  </symbol>
  <symbol xmlns="http://www.w3.org/2000/svg" viewBox="0 0 15 15" id="home">
    <path d="M9.48872 15.0001C9.48872 14.9186 9.48872 14.8576 9.48872 14.7965C9.48872 13.3786 9.48997 11.9608 9.48788 10.5433C9.48705 10.0231 9.19622 9.64325 8.71663 9.53188C8.63205 9.51235 8.54163 9.51152 8.45371 9.5111C7.81954 9.50944 7.18495 9.52606 6.55162 9.50529C6.03911 9.48825 5.49494 9.86972 5.50078 10.5483C5.50619 11.182 5.50161 11.8153 5.50161 12.449C5.50161 13.2332 5.50161 14.0173 5.50161 14.8015C5.50161 14.8621 5.50161 14.9232 5.50161 15.0001C5.43161 15.0001 5.38119 15.0001 5.33078 15.0001C4.07327 15.0001 2.81534 15.0013 1.55784 14.9997C0.765749 14.9988 0.166578 14.5043 0.0182442 13.7314C0.00366082 13.6558 0.0011608 13.5768 0.0011608 13.4995C0.000327465 10.8301 -0.00133921 8.16098 0.00199414 5.49149C0.00282748 4.93923 0.263662 4.52368 0.718665 4.22074C2.26576 3.19184 3.81202 2.16128 5.35828 1.13155C5.78161 0.849807 6.20328 0.565156 6.6287 0.286322C7.19912 -0.0876722 7.78287 -0.0997232 8.35079 0.276349C10.3366 1.59115 12.3171 2.91426 14.2987 4.2357C14.7717 4.55111 15 4.99782 15 5.56463C14.9996 8.18218 15 10.7993 14.9996 13.4169C14.9992 14.3518 14.3496 14.9997 13.4117 15.0001C12.1642 15.0009 10.9171 15.0005 9.66955 15.0005C9.6183 15.0001 9.56663 15.0001 9.48872 15.0001Z"></path>
  </symbol>
  <symbol xmlns="http://www.w3.org/2000/svg" viewBox="0 0 15 15" id="invoicing">
    <path d="M9.11269 15C6.18391 15 3.25473 15 0.325944 15C0.0821717 14.8924 -0.000389904 14.7069 1.38325e-06 14.4411C0.00547941 9.79335 0.00391426 5.1456 0.00391426 0.497847C0.00391426 0.170646 0.172559 0 0.495762 0C2.86305 0 5.23034 0 7.59724 0C7.64889 0 7.70014 0 7.76197 0C7.76197 0.0782779 7.76197 0.136204 7.76197 0.194129C7.76197 1.41448 7.75884 2.63523 7.76705 3.85558C7.76784 3.9726 7.81675 4.10333 7.88131 4.20274C7.9717 4.34168 8.13369 4.34795 8.28981 4.34755C9.50046 4.34599 10.7107 4.34677 11.9214 4.34677C11.9785 4.34677 12.036 4.34677 12.0959 4.34677C12.0959 5.41644 12.0959 6.46771 12.0959 7.48611C11.7175 7.51155 11.3497 7.50802 10.9913 7.56517C9.03717 7.87906 7.55811 9.57965 7.50802 11.5777C7.47946 12.7151 7.86292 13.7096 8.63963 14.5456C8.78831 14.7057 8.95461 14.8489 9.11269 15ZM4.47163 5.9182C4.57885 5.9182 4.68645 5.9182 4.79366 5.9182C5.43263 5.9182 6.07161 5.92016 6.71058 5.91703C6.98135 5.91585 7.18012 5.72524 7.18012 5.47867C7.18012 5.2317 6.98135 5.0454 6.71097 5.03914C6.68671 5.03875 6.66206 5.03914 6.6378 5.03914C5.19395 5.03914 3.7501 5.03914 2.30625 5.03914C2.26242 5.03914 2.21821 5.03679 2.17478 5.04149C1.85549 5.07593 1.67158 5.39804 1.81518 5.67397C1.9087 5.85401 2.06678 5.91937 2.26203 5.91898C2.99844 5.91742 3.73484 5.91781 4.47163 5.9182ZM4.4642 7.96869C5.19591 7.96869 5.92761 7.97104 6.65932 7.96595C6.75832 7.96517 6.86514 7.94521 6.95396 7.90372C7.1273 7.82231 7.21377 7.61135 7.16799 7.43562C7.11243 7.22309 6.94809 7.09198 6.7184 7.09041C6.27468 7.08728 5.83057 7.08924 5.38685 7.08924C4.34799 7.08924 3.30873 7.09041 2.26986 7.08845C2.05504 7.08806 1.88561 7.16321 1.79875 7.36556C1.67158 7.66184 1.89461 7.96595 2.24012 7.96751C2.98122 7.97065 3.72271 7.96869 4.4642 7.96869ZM3.44568 10.0196C3.83579 10.0196 4.22551 10.0204 4.61563 10.0192C4.91535 10.0184 5.10943 9.84423 5.10982 9.58004C5.11021 9.31585 4.91574 9.1409 4.61641 9.14051C3.83149 9.13973 3.04696 9.13973 2.26203 9.14051C1.97092 9.1409 1.76236 9.32564 1.76197 9.57926C1.76158 9.83288 1.97052 10.018 2.26125 10.0192C2.65606 10.0204 3.05087 10.0196 3.44568 10.0196Z"></path>
    <path d="M11.3388 15C11.1408 14.9546 10.9377 14.9252 10.746 14.8607C9.41402 14.4129 8.6064 13.5006 8.41193 12.1033C8.16542 10.3331 9.41402 8.6865 11.1721 8.4137C12.9759 8.13386 14.6792 9.37143 14.9652 11.1699C14.9742 11.2262 14.9883 11.2818 14.9996 11.3382C14.9996 11.5726 14.9996 11.807 14.9996 12.0411C14.9906 12.063 14.9769 12.0841 14.9734 12.1072C14.7598 13.4697 13.9944 14.3769 12.7036 14.8415C12.4915 14.9178 12.2626 14.9483 12.0415 15C11.8075 15 11.5731 15 11.3388 15ZM11.293 11.9718C11.0617 11.7393 10.8442 11.5162 10.6215 11.2982C10.4337 11.1139 10.1661 11.1076 9.99273 11.2771C9.82056 11.445 9.81861 11.7209 10.0002 11.9065C10.3242 12.2376 10.6521 12.5652 10.9835 12.8888C11.1662 13.0669 11.4115 13.0634 11.6021 12.8912C11.66 12.8387 11.7136 12.782 11.7688 12.7268C12.3033 12.1922 12.8386 11.6583 13.3715 11.1221C13.5225 10.9703 13.557 10.771 13.4721 10.5996C13.3875 10.4286 13.2091 10.3276 13.0096 10.3746C12.9078 10.3984 12.8041 10.465 12.7278 10.5393C12.2516 11.0067 11.7821 11.4818 11.293 11.9718Z"></path>
    <path d="M11.8114 3.47515C10.7608 3.47515 9.70513 3.47515 8.63927 3.47515C8.63927 2.40861 8.63927 1.34834 8.63927 0.303327C9.6934 1.35734 10.7503 2.41448 11.8114 3.47515Z"></path>
  </symbol>
  <symbol xmlns="http://www.w3.org/2000/svg" viewBox="0 0 22 15" id="loans">
    <path d="M8.87576 0C8.98286 0.031133 9.08996 0.0618768 9.19667 0.093399C9.51759 0.187965 9.80228 0.349468 10.0406 0.581798C10.4507 0.980689 10.8527 1.38814 11.2573 1.79248C11.2717 1.80688 11.2818 1.82595 11.3075 1.86097C11.2398 1.86409 11.1919 1.86798 11.1436 1.86798C10.3954 1.86837 9.64728 1.87148 8.89952 1.8637C8.81617 1.86292 8.71569 1.81739 8.65377 1.75979C8.43412 1.55587 8.2277 1.33755 8.01467 1.12312C7.87096 1.27062 7.73348 1.41149 7.55238 1.59712C7.59561 1.62242 7.65948 1.64421 7.70232 1.68663C8.37725 2.35793 9.0479 3.03274 9.72283 3.70405C9.92302 3.90291 9.99623 4.13252 9.90276 4.39909C9.74893 4.83807 9.20836 4.95326 8.86369 4.61819C8.48163 4.24693 8.10853 3.8675 7.73231 3.49001C7.50837 3.26546 7.28677 3.03897 7.05271 2.80119C6.24341 3.53126 5.41386 3.58302 4.54693 2.87902C4.42386 3.02924 4.3004 3.18023 4.14618 3.36859C4.39309 3.51842 4.62833 3.65735 4.8585 3.80406C4.90718 3.8352 4.97222 3.89279 4.973 3.93949C4.98079 4.39248 4.97689 4.84546 4.97533 5.29845C4.97533 5.31401 4.96443 5.32958 4.95547 5.35332C4.48929 5.33308 4.04297 5.221 3.66403 4.95404C3.33649 4.72287 3.00078 4.60963 2.60665 4.65944C2.57432 4.66372 2.54005 4.65594 2.49565 4.65283C2.49565 3.30438 2.49565 1.96021 2.49565 0.621103C2.50695 0.61332 2.51162 0.607093 2.51551 0.607482C3.11411 0.681812 3.61573 0.41796 4.11736 0.151384C4.22602 0.0937881 4.34246 0.0502019 4.45541 0.000389162C5.92873 0 7.40205 0 8.87576 0Z"></path>
    <path d="M1.87057 0C1.87057 1.85708 1.87057 3.71456 1.87057 5.60705C1.24081 5.60705 0.620407 5.60705 0 5.60705C0 3.73791 0 1.86915 0 0C0.626249 0 1.24821 0 1.87057 0Z"></path>
    <path d="M16.0877 12.2582C16.0336 12.0527 15.9853 11.869 15.9319 11.6663C15.5604 11.7655 15.1978 11.8632 14.8348 11.9589C14.0653 12.1617 13.2961 12.3676 12.5246 12.5629C12.1507 12.6579 11.836 12.4719 11.748 12.1247C11.6615 11.7846 11.8555 11.4608 12.2192 11.3624C13.4238 11.0366 14.6284 10.7097 15.8369 10.3996C16.0683 10.3404 16.3191 10.3474 16.5613 10.3404C16.8783 10.3311 17.1973 10.3206 17.5128 10.3451C17.6981 10.3595 17.8929 10.4128 18.0572 10.4984C18.3879 10.6704 18.7033 10.8724 19.0184 11.072C19.0718 11.1059 19.1228 11.1911 19.1232 11.2534C19.1294 12.2897 19.1263 13.3261 19.1298 14.3624C19.1302 14.4574 19.0998 14.5009 19.0114 14.534C18.6784 14.6593 18.3516 14.801 18.0167 14.9212C17.8866 14.9679 17.7421 14.9944 17.6039 14.9952C16.1703 15.0002 14.7363 15.0041 13.3027 14.9917C13.1142 14.9901 12.9039 14.9353 12.7423 14.8399C10.8674 13.7312 8.99958 12.6108 7.13057 11.4919C6.79291 11.29 6.68775 10.9347 6.86457 10.6206C7.03788 10.3128 7.40514 10.2202 7.74981 10.4054C8.84574 10.9942 9.94012 11.585 11.0333 12.178C11.0832 12.2053 11.1373 12.2528 11.1568 12.3033C11.4364 13.0206 11.9229 13.2992 12.6733 13.1638C12.7454 13.1506 12.8167 13.1319 12.8875 13.1128C13.9453 12.8303 15.0027 12.5477 16.0877 12.2582Z"></path>
    <path d="M6.23017 4.67267C6.23017 5.49497 6.23017 6.30793 6.23017 7.14074C6.67337 7.11233 7.08269 7.17966 7.40906 7.505C7.73621 7.83112 7.80553 8.24012 7.77944 8.68805C10.2657 8.68805 12.7392 8.68805 15.2391 8.68805C15.2017 8.25491 15.2629 7.84474 15.5869 7.51745C15.9113 7.18939 16.3168 7.10766 16.7716 7.14424C16.7716 6.31299 16.7716 5.49653 16.7716 4.65788C16.3308 4.69174 15.9218 4.62636 15.5966 4.29791C15.2765 3.97452 15.1963 3.57601 15.2454 3.11369C15.155 3.11369 15.0845 3.11369 15.014 3.11369C13.3989 3.11369 11.7838 3.11252 10.1688 3.11602C10.0523 3.11641 9.96819 3.08528 9.88563 3.00161C9.72517 2.83816 9.55186 2.68717 9.384 2.53111C9.39491 2.51749 9.4062 2.50387 9.41711 2.49025C12.0724 2.49025 14.7274 2.49025 17.3971 2.49025C17.3971 4.75907 17.3971 7.03061 17.3971 9.31188C13.4663 9.31188 9.53745 9.31188 5.59964 9.31188C5.59964 7.53224 5.59964 5.76311 5.59964 4.00721C5.84655 3.9749 6.08568 3.96479 6.31273 3.90758C6.51798 3.85621 6.70959 3.75036 6.90977 3.67564C6.95261 3.65968 7.02466 3.65501 7.05309 3.67992C7.21861 3.82469 7.37479 3.97996 7.52901 4.12629C7.31209 4.48938 7.06322 4.59134 6.23017 4.67267Z"></path>
    <path d="M8.38465 8.07551C7.90056 6.96328 7.87719 6.94032 6.84279 6.53559C6.84279 6.11374 6.84279 5.69033 6.84279 5.25486C7.29027 5.1638 7.66883 4.95365 7.98468 4.57305C8.12566 4.72482 8.25107 4.8692 8.38621 5.00424C8.89368 5.5121 9.51369 5.56113 10.1037 5.14512C10.1162 5.13617 10.1314 5.13033 10.1477 5.12177C9.80189 6.11841 10.0134 6.85821 10.7584 7.26761C11.4092 7.62525 12.2438 7.46102 12.708 6.88467C13.1777 6.30132 13.1653 5.45567 12.6788 4.90189C12.109 4.25277 11.3558 4.2014 10.4266 4.76529C10.5734 4.41855 10.5972 4.08465 10.478 3.73557C11.8715 3.73557 13.2517 3.73557 14.6401 3.73557C14.7539 4.26561 15.0171 4.69719 15.4814 4.97855C15.6621 5.0883 15.8739 5.14589 16.0687 5.23385C16.1107 5.25291 16.1703 5.29884 16.1707 5.33347C16.1777 5.7347 16.1754 6.13631 16.1754 6.54221C15.3435 6.73718 14.8294 7.24114 14.6362 8.07434C12.5519 8.07551 10.4683 8.07551 8.38465 8.07551Z"></path>
    <path d="M19.7541 10.0342C20.3698 10.0342 20.979 10.0342 21.5998 10.0342C21.5998 11.6846 21.5998 13.3331 21.5998 14.9901C20.9848 14.9901 20.3753 14.9901 19.7541 14.9901C19.7541 13.3405 19.7541 11.692 19.7541 10.0342Z"></path>
    <path d="M11.5015 6.83369C10.9761 6.83291 10.5699 6.42274 10.5722 5.89542C10.5742 5.38484 10.9894 4.96766 11.4984 4.96454C12.0109 4.96143 12.4416 5.38834 12.4428 5.90087C12.4444 6.41651 12.0222 6.83447 11.5015 6.83369Z"></path>
  </symbol>
  <symbol xmlns="http://www.w3.org/2000/svg" viewBox="0 0 30 29" id="logo">
    <path d="M15.6941 11.5394C14.8888 11.8184 14.4556 11.6941 14.4556 11.6941C14.4556 11.6941 14.0219 11.8178 13.2171 11.5394C12.4117 11.2604 9.50093 11.0441 8.50977 11.8799L8.66451 12.4995H8.80928C8.80928 12.4995 9.16038 15.2555 11.0284 15.2555C12.897 15.2555 12.2259 13.2726 13.3408 13.2726C13.9087 13.2726 13.8571 13.738 14.4556 13.738C15.054 13.738 15.0025 13.2726 15.5704 13.2726C16.6853 13.2726 16.0142 15.2555 17.8828 15.2555C19.7514 15.2555 20.1019 12.4995 20.1019 12.4995H20.2467L20.4014 11.8799C19.4103 11.0441 16.4995 11.261 15.6941 11.5394Z"></path>
    <path d="M13.4748 13.9549C12.8764 13.6864 12.6284 14.3265 13.0206 14.7186C13.4127 15.1107 14.0733 15.2555 14.0733 15.2555C14.0733 15.2555 14.0733 14.2233 13.4748 13.9549Z"></path>
    <path d="M15.3939 13.9549C14.7954 14.2233 14.7954 15.2555 14.7954 15.2555C14.7954 15.2555 15.456 15.1107 15.8481 14.7186C16.2402 14.3265 15.9923 13.6864 15.3939 13.9549Z"></path>
    <path d="M20.1404 14.5123C20.1404 14.5123 19.4382 16.0609 17.4254 15.793C17.4254 15.793 18.3234 17.6306 17.7865 18.2706C17.2502 18.9101 16.6927 17.9207 14.4548 17.9195H14.4525C12.2146 17.9201 11.6578 18.9101 11.1209 18.2706C10.584 17.6306 11.4819 15.793 11.4819 15.793C9.46912 16.0615 8.76692 14.5123 8.76692 14.5123C7.8584 18.8064 9.40699 20.0045 9.30382 19.5502C9.20066 19.0959 9.96031 20.0338 10.7698 20.9745C11.5335 21.8625 11.1824 20.7266 11.3682 20.9124C12.3248 22.5401 14.3927 22.6439 14.4519 22.6468H14.4543C14.5135 22.6444 16.5814 22.5407 17.538 20.9124C17.7238 20.7266 17.3727 21.8619 18.1364 20.9745C18.9459 20.0338 19.7055 19.0959 19.6024 19.5502C19.5004 20.0045 21.049 18.8058 20.1404 14.5123ZM16.426 19.9939C16.0345 19.396 15.6248 19.2624 14.4496 19.2618C13.2749 19.2624 12.8646 19.396 12.4731 19.9939C12.081 20.5924 10.7598 19.7049 11.7094 19.0238C12.6179 18.372 14.2995 18.3345 14.4443 18.3322C14.4443 18.3322 14.4461 18.3322 14.4496 18.3322C14.4531 18.3322 14.4548 18.3322 14.4548 18.3322C14.5996 18.3339 16.2813 18.372 17.1898 19.0238C18.1399 19.7049 16.8182 20.5924 16.426 19.9939Z"></path>
    <path d="M14.6242 16.8815C14.5316 16.5099 14.4554 15.9524 14.4554 15.9524C14.4554 15.9524 14.3781 16.5099 14.2849 16.8815C14.1923 17.2519 14.33 17.3914 14.4537 17.392H14.4548C14.5785 17.3914 14.7169 17.2519 14.6242 16.8815Z"></path>
    <path d="M10.7084 10.3419C10.6257 10.1561 12.009 10.5687 12.1948 10.6103C12.3806 10.6514 12.0295 10.2387 12.1948 10.1977C12.3601 10.1567 13.3079 11.1455 14.4526 11.1473H14.455C15.5997 11.1455 16.5481 10.1567 16.7128 10.1977C16.8781 10.2387 16.527 10.652 16.7128 10.6103C16.8986 10.5693 18.2819 10.1561 18.1993 10.3419C18.1166 10.5277 17.9929 10.6725 17.9929 10.6725C18.674 10.6725 19.81 10.8788 19.81 10.8788C19.6863 5.11467 14.4843 5.20083 14.4538 5.20142C14.4233 5.20083 9.22131 5.11526 9.09764 10.8788C9.09764 10.8788 10.233 10.6725 10.9147 10.6725C10.9147 10.6725 10.791 10.5277 10.7084 10.3419Z"></path>
    <path d="M14.5 27.7204C12.3406 27.7204 10.1989 27.1888 8.30504 26.1824L7.70483 27.3119C9.78212 28.4162 12.132 29 14.5 29C16.9835 29 19.4341 28.3611 21.5876 27.1525C23.6743 25.9813 25.4568 24.2944 26.7422 22.2734L25.6625 21.587C23.2189 25.4274 19.0461 27.7204 14.5 27.7204Z"></path>
    <path d="M1.27955 14.5C1.27955 12.4637 1.72971 10.5113 2.6183 8.69601L1.46946 8.13332C0.494118 10.1256 0 12.2674 0 14.5C0 18.909 1.99582 23.0419 5.39427 25.785L4.28763 27.4461L5.33683 28.1448L7.1187 25.4697L7.10171 25.4585C3.4559 22.992 1.27955 18.8967 1.27955 14.5Z"></path>
    <path d="M23.5536 3.17279L24.7305 1.40557L23.6813 0.706888L21.8995 3.38204L21.9006 3.38263L21.8268 3.49341C25.5177 5.95521 27.721 10.0693 27.721 14.5C27.721 16.5609 27.2603 18.535 26.3518 20.3667L27.4983 20.9353C28.4953 18.9248 29.0012 16.7596 29.0012 14.5C29 10.0635 26.9854 5.91535 23.5536 3.17279Z"></path>
    <path d="M14.5 1.27955C16.6635 1.27955 18.8093 1.81353 20.7055 2.82345L21.3069 1.69454C19.2261 0.585557 16.8727 0 14.5 0C12.0206 0 9.57347 0.637137 7.42291 1.84166C5.33917 3.00926 3.5573 4.69149 2.27072 6.70606L3.34922 7.39478C5.79402 3.56551 9.96267 1.27955 14.5 1.27955Z"></path>
  </symbol>
  <symbol xmlns="http://www.w3.org/2000/svg" viewBox="0 0 16 15" id="marketplace">
    <path d="M9.68166 6.36361C10.321 7.37788 12.4231 7.36851 13.0644 6.39222C13.4615 6.88061 13.9711 7.13073 14.6193 7.10803C14.6243 7.1845 14.6322 7.24962 14.6322 7.31424C14.6327 9.69502 14.6332 12.0763 14.6327 14.4571C14.6327 14.8685 14.5004 14.9997 14.092 14.9997C11.8523 14.9997 9.61309 14.9997 7.3734 14.9997C7.30631 14.9997 7.23971 14.9997 7.15239 14.9997C7.14697 14.9114 7.13809 14.8345 7.13809 14.758C7.1371 12.9243 7.13759 11.0911 7.13759 9.25745C7.13759 8.80161 7.02512 8.68864 6.57323 8.68864C5.63789 8.68864 4.70304 8.68864 3.7677 8.68864C3.33062 8.68864 3.20432 8.81345 3.20432 9.24363C3.20432 11.0832 3.20432 12.9228 3.20432 14.7624C3.20432 14.835 3.20432 14.907 3.20432 14.9948C2.65328 14.9948 2.1195 15.0032 1.58672 14.9904C1.39481 14.9859 1.26605 14.8335 1.23991 14.6411C1.23152 14.5804 1.23004 14.5182 1.23004 14.4571C1.22955 12.0763 1.22955 9.69502 1.22955 7.31424C1.22955 7.25356 1.22955 7.19289 1.22955 7.11001C1.87235 7.12727 2.39083 6.89443 2.79289 6.39124C2.83482 6.43662 2.87133 6.47559 2.90734 6.51457C3.25366 6.88999 3.67791 7.10261 4.19196 7.10113C4.51656 7.10014 4.84759 7.10606 5.16381 7.04686C5.58165 6.96842 5.9107 6.71436 6.17413 6.36016C6.63539 6.90626 7.22097 7.11297 7.92149 7.11346C8.62201 7.11494 9.2135 6.92106 9.68166 6.36361ZM9.11286 10.6629C9.11286 11.1548 9.11187 11.6466 9.11335 12.1385C9.11434 12.4714 9.25198 12.6199 9.57659 12.6214C10.4493 12.6249 11.3225 12.6249 12.1956 12.6214C12.5124 12.6199 12.6574 12.471 12.6579 12.1562C12.6599 11.1602 12.6594 10.1647 12.6579 9.16865C12.6574 8.847 12.5035 8.69111 12.1853 8.69012C11.3185 8.68815 10.4517 8.68815 9.58497 8.69012C9.26678 8.69062 9.11483 8.847 9.11335 9.16914C9.11138 9.6669 9.11286 10.1652 9.11286 10.6629Z"></path>
    <path d="M7.92395 0.0155195C8.16371 0.0155195 8.40346 0.0184795 8.64322 0.0140395C8.73497 0.0125596 8.77 0.042159 8.78036 0.137864C8.92638 1.49302 9.07586 2.8472 9.22583 4.20186C9.25543 4.47023 9.28947 4.73811 9.32252 5.00648C9.4059 5.68874 8.85584 6.32168 8.16864 6.32316C7.91803 6.32365 7.65953 6.33549 7.4178 6.28122C6.83469 6.15099 6.46914 5.55949 6.54314 4.96504C6.64772 4.12441 6.73208 3.28132 6.82581 2.43971C6.91116 1.67111 6.99946 0.902516 7.08135 0.133424C7.09171 0.0337725 7.13513 0.0125596 7.22244 0.0140395C7.45677 0.0179861 7.69061 0.0155195 7.92395 0.0155195Z"></path>
    <path d="M4.68528 0.022426C5.22646 0.022426 5.75431 0.022426 6.31078 0.022426C6.27921 0.3273 6.2506 0.623294 6.21755 0.918795C6.1248 1.74906 6.02959 2.57883 5.93684 3.40909C5.85988 4.09876 5.79329 4.78991 5.70695 5.47859C5.6448 5.97536 5.22794 6.32316 4.72376 6.32612C4.55159 6.3271 4.37942 6.32809 4.20676 6.32562C3.5832 6.31773 3.10961 5.72722 3.2724 5.12389C3.70406 3.5265 4.15249 1.93307 4.59451 0.338153C4.62411 0.232582 4.6547 0.127997 4.68528 0.022426Z"></path>
    <path d="M9.55488 0.0155195C9.93721 0.0155195 10.3047 0.0140395 10.6723 0.0160128C10.8375 0.0169995 11.0482 -0.0357861 11.1557 0.0451189C11.2628 0.125531 11.2716 0.3421 11.316 0.50095C11.7334 2.00115 12.1384 3.5048 12.5706 5.00056C12.7847 5.74153 12.2218 6.38532 11.5583 6.32661C11.3328 6.30688 11.0985 6.33549 10.8809 6.28566C10.4601 6.18947 10.211 5.89199 10.1577 5.47217C10.0423 4.55854 9.95348 3.64096 9.85137 2.72535C9.75961 1.9015 9.6644 1.07765 9.57116 0.253795C9.56277 0.182756 9.5608 0.110238 9.55488 0.0155195Z"></path>
    <path d="M3.87426 0.0184795C3.63894 0.864036 3.41053 1.68394 3.18262 2.50434C2.90586 3.50233 2.62862 4.50082 2.35334 5.49931C2.19696 6.06613 1.85952 6.3276 1.27198 6.32464C1.10671 6.32365 0.936515 6.33056 0.777665 6.29306C0.15509 6.14704 -0.16705 5.53433 0.0875048 4.95221C0.738692 3.46287 1.40369 1.97895 2.06623 0.49503C2.19449 0.207422 2.42882 0.0391991 2.7406 0.0234127C3.10862 0.00417307 3.47812 0.0184795 3.87426 0.0184795Z"></path>
    <path d="M11.9904 0.0229194C12.3945 0.0229194 12.7817 0.00417307 13.1665 0.0288393C13.4546 0.0475856 13.6731 0.218769 13.792 0.485164C14.458 1.975 15.128 3.46385 15.7782 4.9606C16.0643 5.62017 15.5798 6.31674 14.8576 6.32464C14.6736 6.32661 14.4837 6.34437 14.3061 6.30836C13.8882 6.224 13.6332 5.95316 13.5202 5.5437C13.0861 3.97247 12.65 2.40123 12.2149 0.829997C12.1414 0.565575 12.0679 0.301154 11.9904 0.0229194Z"></path>
  </symbol>
  <symbol xmlns="http://www.w3.org/2000/svg" viewBox="0 0 17 15" id="open-store">
    <path d="M16.9565 5.07157C16.9371 5.09563 16.9141 5.11792 16.8991 5.14466C16.6381 5.61178 16.1626 5.80701 15.6821 5.64343C15.2057 5.48074 14.9412 5.03056 15.0167 4.48365C15.0781 4.48365 15.1425 4.4841 15.2074 4.48365C15.7908 4.47964 16.3736 4.47518 16.957 4.47117C16.9565 4.67086 16.9565 4.87099 16.9565 5.07157Z"></path>
    <path d="M0 4.47074C0.644701 4.47074 1.2894 4.47074 1.93145 4.47074C2.07717 5.01542 1.63825 5.62561 1.07789 5.67152C0.609817 5.70986 0.268478 5.51686 0.0454823 5.10367C0.0331182 5.08049 0.0154552 5.05999 0 5.03815C0 4.84916 0 4.65973 0 4.47074Z" ></path>
    <path d="M0.698573 15.0001C0.698573 14.6368 0.690184 14.2865 0.701223 13.9366C0.710054 13.6438 0.94983 13.4227 1.24348 13.4147C1.33091 13.4124 1.41878 13.4142 1.53271 13.4142C1.53271 13.3353 1.53271 13.2658 1.53271 13.1963C1.53271 10.8776 1.53359 8.55849 1.53006 6.23982C1.53006 6.11368 1.56804 6.05039 1.67622 5.97952C1.8714 5.85204 2.04361 5.68846 2.22466 5.54048C2.85744 6.40296 4.07398 6.38557 4.7178 5.51953C5.02602 5.9452 5.43669 6.18901 5.96216 6.19168C6.48808 6.19436 6.9036 5.95723 7.2233 5.51953C7.54168 5.95456 7.95632 6.19302 8.48091 6.19124C9.00065 6.18946 9.41308 5.95768 9.73013 5.51819C10.045 5.94966 10.4583 6.19124 10.9829 6.19213C11.5079 6.19258 11.9239 5.9559 12.233 5.52711C12.8909 6.41098 14.0929 6.41187 14.7261 5.56589C14.9394 5.72724 15.1531 5.88636 15.3633 6.05039C15.3929 6.07357 15.4123 6.11814 15.4212 6.15647C15.4309 6.19882 15.4238 6.24473 15.4238 6.2893C15.4238 8.58568 15.4238 10.8825 15.4238 13.1789C15.4238 13.2502 15.4238 13.3215 15.4238 13.4138C15.5289 13.4138 15.6208 13.4115 15.7126 13.4142C16.0124 13.4227 16.2491 13.65 16.2562 13.9527C16.2641 14.2968 16.2579 14.6413 16.2579 14.9997C11.0734 15.0001 5.8946 15.0001 0.698573 15.0001ZM7.32354 13.4062C7.32928 13.371 7.33414 13.3545 7.33414 13.3384C7.33458 11.6714 7.33811 10.0044 7.33281 8.33741C7.33149 7.9416 7.07317 7.70581 6.67663 7.70537C5.76124 7.70448 4.84541 7.70492 3.93003 7.70537C3.4858 7.70537 3.2447 7.94695 3.2447 8.39268C3.24426 10.004 3.2447 11.6153 3.2447 13.227C3.2447 13.2859 3.2447 13.3447 3.2447 13.4062C4.61535 13.4062 5.96481 13.4062 7.32354 13.4062ZM11.3578 11.4142C11.893 11.4142 12.4282 11.4151 12.9638 11.4138C13.2835 11.4134 13.4239 11.2796 13.4248 10.9623C13.4274 9.98392 13.4274 9.00555 13.4248 8.02674C13.4239 7.72632 13.2733 7.57477 12.9757 7.57432C11.8996 7.5721 10.8235 7.57165 9.74735 7.57432C9.4537 7.57522 9.30268 7.73479 9.30268 8.03208C9.3018 9.01045 9.3018 9.98882 9.30268 10.9676C9.30313 11.2676 9.45017 11.4129 9.75221 11.4138C10.287 11.4151 10.8226 11.4142 11.3578 11.4142Z"></path>
    <path d="M15.4035 1.56728C15.3324 1.56728 15.2666 1.56728 15.2004 1.56728C11.3202 1.56728 7.44012 1.56817 3.56043 1.56639C2.93692 1.56595 2.31386 1.55346 1.69035 1.55346C1.56892 1.55346 1.5199 1.52048 1.5305 1.39345C1.54463 1.22764 1.53359 1.05916 1.55567 0.895128C1.62456 0.382098 2.05686 0.00144861 2.56953 0.00100288C6.51016 -0.000334294 10.4512 -0.000334294 14.3918 0.00100288C14.9041 0.00100288 15.3377 0.382098 15.3991 0.89914C15.4243 1.11131 15.4035 1.32926 15.4035 1.56728Z"></path>
    <path d="M7.61675 2.07363C8.20095 2.07363 8.76219 2.07363 9.34198 2.07363C9.38482 2.70879 9.42721 3.3386 9.47048 3.98267C8.80768 3.98267 8.15547 3.98267 7.48604 3.98267C7.52976 3.34573 7.57259 2.71636 7.61675 2.07363Z"></path>
    <path d="M9.96328 3.98401C9.92001 3.35063 9.87717 2.72127 9.83302 2.07898C10.4084 2.07898 10.9727 2.07898 11.5569 2.07898C11.6828 2.70477 11.8095 3.33637 11.9398 3.98401C11.2717 3.98401 10.6256 3.98401 9.96328 3.98401Z"></path>
    <path d="M5.01851 3.98891C5.14878 3.33904 5.27507 2.71101 5.40224 2.07586C5.97187 2.07586 6.53665 2.07586 7.12262 2.07586C7.08023 2.71636 7.03784 3.34929 6.99545 3.98891C6.33485 3.98891 5.69236 3.98891 5.01851 3.98891Z"></path>
    <path d="M12.055 2.07274C12.6322 2.07274 13.1886 2.07274 13.7657 2.07274C13.975 2.69943 14.1861 3.33146 14.4033 3.98267C14.3428 3.98846 14.2965 3.99649 14.2501 3.99649C13.6981 3.99738 13.1462 3.99426 12.5946 3.99961C12.4807 4.0005 12.4352 3.97331 12.4123 3.85029C12.3023 3.26238 12.1778 2.67714 12.055 2.07274Z"></path>
    <path d="M14.3027 2.07095C14.7813 2.07095 15.26 2.05401 15.7364 2.08254C15.8579 2.08967 16.0204 2.21448 16.0791 2.32903C16.3511 2.85989 16.5935 3.40635 16.8461 3.9479C16.8501 3.95592 16.8444 3.96885 16.8408 3.99649C16.5803 3.99649 16.318 3.99649 16.0557 3.99649C15.7197 3.99649 15.3832 4.00005 15.0476 3.99247C14.9972 3.99114 14.9169 3.94835 14.9028 3.9069C14.6974 3.31141 14.5014 2.7128 14.3035 2.11508C14.3 2.10527 14.3027 2.09368 14.3027 2.07095Z"></path>
    <path d="M4.52174 3.96261C4.48067 3.96573 4.45374 3.96974 4.4268 3.96974C3.81478 3.97019 3.20275 3.97019 2.57748 3.97019C2.58499 3.92517 2.58587 3.88818 2.59691 3.85475C2.78149 3.29803 2.96607 2.74132 3.15594 2.18639C3.17184 2.13959 3.22616 2.07274 3.26325 2.07229C3.8033 2.06471 4.34334 2.06739 4.90105 2.06739C4.77344 2.70477 4.64891 3.32656 4.52174 3.96261Z"></path>
    <path d="M2.66447 2.0402C2.65166 2.09814 2.64637 2.14138 2.63268 2.18194C2.44721 2.73909 2.26264 3.29625 2.07232 3.85163C2.05642 3.89798 2.00166 3.96439 1.96457 3.96484C1.34813 3.97197 0.731692 3.96974 0.0931726 3.96974C0.182812 3.77585 0.262738 3.60113 0.343988 3.42685C0.508254 3.07562 0.674287 2.72528 0.837228 2.3736C0.941882 2.14806 1.11719 2.03975 1.36226 2.03975C1.79192 2.04064 2.22157 2.0402 2.66447 2.0402Z"></path>
    <path d="M7.48339 4.49169C8.14752 4.49169 8.80238 4.49169 9.45679 4.49169C9.55659 4.79211 9.40999 5.22312 9.12826 5.45936C8.80194 5.73303 8.3661 5.77805 8.00047 5.57569C7.61763 5.36353 7.42422 4.96772 7.48339 4.49169Z"></path>
    <path d="M9.97874 4.49302C10.6557 4.49302 11.3149 4.49302 11.9813 4.49302C12.0329 4.92939 11.9036 5.2833 11.5446 5.52532C11.2041 5.75532 10.8389 5.76914 10.4835 5.55875C10.0896 5.32564 9.94959 4.95925 9.97874 4.49302Z"></path>
    <path d="M6.97823 4.4957C7.00781 4.93073 6.88506 5.28864 6.52385 5.52889C6.18162 5.75621 5.81644 5.76825 5.46274 5.55563C5.0715 5.32029 4.92711 4.95702 4.97568 4.4957C5.64113 4.4957 6.30438 4.4957 6.97823 4.4957Z"></path>
    <path d="M14.4978 4.49926C14.5385 4.93964 14.4047 5.29711 14.0355 5.53647C13.6906 5.75978 13.3268 5.76512 12.9766 5.54939C12.5955 5.3145 12.4551 4.9548 12.4922 4.49926C13.1563 4.49926 13.8178 4.49926 14.4978 4.49926Z"></path>
    <path d="M4.46433 4.49392C4.50187 4.95123 4.35703 5.31093 3.96977 5.5387C3.61651 5.74685 3.25044 5.7366 2.90822 5.50839C2.55363 5.27215 2.42514 4.9236 2.45825 4.49392C3.12901 4.49392 3.78828 4.49392 4.46433 4.49392Z"></path>
  </symbol>
  <symbol xmlns="http://www.w3.org/2000/svg" viewBox="0 0 15 15" id="payments">
    <path d="M5.62325 14.9999C5.37713 14.9706 5.12905 14.9522 4.88489 14.91C4.46817 14.8377 4.05419 14.7501 3.63903 14.6704C3.5639 14.6559 3.54199 14.6172 3.54199 14.5402C3.54434 12.8047 3.54277 11.0696 3.54786 9.33412C3.54786 9.28096 3.59482 9.20826 3.64138 9.17738C4.71077 8.46871 6.18162 8.51953 7.18096 9.3263C7.54447 9.61985 7.92715 9.75744 8.38965 9.73751C8.83298 9.71875 9.27748 9.73243 9.72159 9.7336C10.2185 9.73516 10.602 10.1194 10.602 10.6131C10.602 11.1029 10.2146 11.4871 9.71651 11.4879C8.83337 11.489 7.94984 11.4875 7.06671 11.4886C6.78733 11.489 6.59677 11.6513 6.58464 11.8924C6.57056 12.1739 6.75642 12.3646 7.05536 12.3658C7.69942 12.3681 8.34348 12.3666 8.98793 12.3666C9.4516 12.3666 9.91528 12.3654 10.3786 12.367C10.8352 12.3685 11.2046 12.1981 11.5039 11.8467C12.1394 11.1005 12.785 10.3633 13.4283 9.62415C13.7159 9.29347 14.1337 9.19888 14.4973 9.37634C14.8756 9.56122 15.0756 9.96226 14.9731 10.3911C14.9277 10.581 14.8604 10.7819 14.7465 10.9363C14.0308 11.91 13.3081 12.8794 12.5698 13.8359C12.0685 14.4847 11.3924 14.8557 10.5785 14.9722C10.5562 14.9753 10.5355 14.9901 10.5143 14.9995C8.88424 14.9999 7.25374 14.9999 5.62325 14.9999Z"></path>
    <path d="M0 9.17746C0.10643 8.93238 0.292292 8.8374 0.558758 8.85303C0.908569 8.87336 1.26542 8.83583 1.60897 8.88977C2.22877 8.9871 2.66388 9.53668 2.66467 10.1613C2.66662 11.3312 2.66584 12.5011 2.66506 13.671C2.66467 14.314 2.25225 14.8253 1.61915 14.973C1.59606 14.9785 1.57454 14.991 1.55263 15C1.14256 15 0.73249 15 0.322421 15C0.172949 14.9347 0.0649537 14.828 0.000391287 14.6783C0 12.8447 0 11.0111 0 9.17746Z"></path>
    <path d="M8.9719 8.79674C8.70817 8.79674 8.44444 8.80534 8.1815 8.79205C8.08641 8.78736 7.97568 8.75257 7.90368 8.69315C7.48461 8.34762 7.01976 8.0912 6.50405 7.92312C6.44927 7.90514 6.39527 7.86019 6.35888 7.81367C5.79543 7.09016 5.44835 6.27635 5.36071 5.36051C5.2085 3.76729 5.70543 2.39765 6.88008 1.31843C8.2308 0.0766034 9.83742 -0.302159 11.5896 0.242336C13.3391 0.785659 14.457 2.00012 14.8729 3.78722C15.472 6.36273 13.8755 8.90697 11.3079 9.5441C11.2167 9.56677 11.16 9.55504 11.0985 9.47413C10.7609 9.02892 10.2995 8.81863 9.74821 8.79908C9.48996 8.7897 9.23093 8.79752 8.97229 8.79752C8.9719 8.79752 8.9719 8.79713 8.9719 8.79674ZM10.6032 6.96781C10.6627 6.93928 10.7159 6.91543 10.7671 6.88885C11.2821 6.62032 11.5485 6.0727 11.4534 5.48051C11.3678 4.94657 10.9205 4.51739 10.359 4.43178C10.2534 4.41576 10.1434 4.41928 10.0413 4.39231C9.8073 4.33133 9.67191 4.08351 9.73608 3.85406C9.80299 3.61445 10.0632 3.46436 10.2999 3.55309C10.4283 3.60117 10.5441 3.6895 10.6564 3.77276C10.863 3.92599 11.1165 3.91191 11.2742 3.72859C11.43 3.54761 11.4139 3.2826 11.2296 3.11257C11.1514 3.04025 11.0641 2.97576 10.9741 2.91869C10.8544 2.84247 10.6748 2.80455 10.6188 2.69862C10.5566 2.58019 10.6055 2.4039 10.6032 2.25302C10.5989 1.97276 10.4095 1.77107 10.1579 1.77576C9.90981 1.78045 9.72904 1.97784 9.72513 2.25107C9.72278 2.41133 9.72473 2.57159 9.72473 2.73185C9.67739 2.75296 9.63787 2.77094 9.59835 2.78892C9.09163 3.02227 8.77508 3.59687 8.86155 4.12768C8.97464 4.82149 9.46218 5.2542 10.172 5.28507C10.3316 5.29211 10.4533 5.35856 10.5382 5.4895C10.6388 5.64468 10.6259 5.85029 10.5136 5.99608C10.406 6.13563 10.2068 6.21928 10.0448 6.14227C9.87812 6.06332 9.72473 5.94527 9.58544 5.82214C9.40192 5.65954 9.15189 5.63218 8.97777 5.78384C8.79934 5.93902 8.76882 6.20208 8.93081 6.38423C9.05915 6.52846 9.20784 6.65706 9.36005 6.77667C9.47079 6.86345 9.6543 6.89745 9.70947 7.00416C9.7713 7.12377 9.72239 7.29928 9.72513 7.45016C9.73021 7.72065 9.91803 7.91921 10.1649 7.91843C10.4122 7.91765 10.5985 7.72025 10.6032 7.44859C10.6055 7.28794 10.6032 7.12729 10.6032 6.96781Z"></path>
  </symbol>
  <symbol xmlns="http://www.w3.org/2000/svg" viewBox="0 0 15 17" id="replenishment">
    <path d="M7.86737 0C8.0896 0.063269 8.32033 0.106628 8.53228 0.193789C9.53612 0.607471 10.0418 1.3813 10.1438 2.43342C10.2614 3.64836 9.40958 4.88277 8.06322 5.18496C6.63414 5.50573 5.14424 4.53413 4.88847 3.10726C4.6497 1.77684 5.41566 0.276525 7.07502 0.0296435C7.0947 0.0265464 7.11258 0.0101761 7.13092 0C7.3764 0 7.62188 0 7.86737 0Z"></path>
    <path d="M13.9092 10.1018C14.0921 10.1018 14.2754 10.1009 14.4588 10.1018C14.7892 10.1036 14.9976 10.2991 14.9985 10.6208C15.0012 11.6747 15.0007 12.7286 14.9985 13.7829C14.998 14.0696 14.8058 14.2709 14.5182 14.3001C14.4852 14.3037 14.4507 14.3059 14.4181 14.3019C13.8033 14.2258 13.2479 14.3793 12.7225 14.6979C12.4345 14.8722 12.1148 14.9956 11.8175 15.1562C11.7406 15.1978 11.6668 15.2837 11.6368 15.3655C11.4982 15.7429 11.3752 16.1256 11.2474 16.507C11.1289 16.8592 10.9943 16.957 10.6263 16.957C10.1299 16.957 9.6336 16.9579 9.13727 16.9565C8.88106 16.9561 8.71785 16.8459 8.63244 16.603C8.50456 16.2398 8.38249 15.8748 8.26354 15.5084C8.23046 15.4067 8.18887 15.358 8.06725 15.3611C7.68807 15.3708 7.30888 15.3682 6.9297 15.3624C6.82418 15.3606 6.77231 15.389 6.73967 15.4943C6.63012 15.846 6.50939 16.1946 6.39089 16.5437C6.2876 16.849 6.13512 16.9565 5.80915 16.9565C5.31282 16.957 4.81649 16.957 4.32015 16.9565C4.02638 16.9561 3.86987 16.8472 3.77329 16.5667C3.6226 16.1296 3.47817 15.6903 3.32525 15.2536C3.29887 15.1784 3.25639 15.1018 3.20139 15.0443C2.35941 14.1665 1.84161 13.1334 1.66991 11.9335C1.66231 11.8791 1.64845 11.8255 1.6328 11.7486C1.31309 11.9065 1.12216 12.1503 1.03988 12.4799C1.01752 12.5697 1.0126 12.6649 1.0059 12.7578C0.987117 13.0223 0.761307 13.2352 0.498385 13.2329C0.226519 13.2307 0.00473387 13.0086 0.000262398 12.7343C-0.0144935 11.8384 0.594521 11.003 1.46646 10.7358C1.58764 10.6986 1.63637 10.6562 1.65202 10.519C1.85995 8.68333 3.29395 7.04365 5.09729 6.55475C5.56859 6.42689 6.04614 6.36672 6.53264 6.36583C7.36925 6.3645 8.20586 6.36362 9.04203 6.3676C9.15605 6.36804 9.21284 6.34548 9.25308 6.22248C9.53478 5.35884 10.3392 4.78278 11.2594 4.77172C11.4325 4.76951 11.6051 4.76906 11.7781 4.77172C12.0951 4.77659 12.312 4.98896 12.3138 5.30486C12.3174 5.88446 12.3178 6.46361 12.312 7.04321C12.3107 7.1578 12.3433 7.23877 12.4283 7.31619C13.1075 7.93694 13.5891 8.67714 13.8019 9.57574C13.8417 9.74077 13.8703 9.90889 13.9092 10.1018ZM7.49758 8.5099C6.97978 8.5099 6.46154 8.50901 5.94374 8.51034C5.60838 8.51078 5.39331 8.70015 5.38928 8.99525C5.38526 9.28948 5.59631 9.49698 5.92944 9.49875C6.97621 9.50406 8.02343 9.50229 9.07065 9.49919C9.2428 9.49875 9.40198 9.45053 9.5084 9.30098C9.62734 9.13374 9.64433 8.95543 9.55088 8.77182C9.45877 8.59042 9.30003 8.51211 9.10195 8.51122C8.56716 8.50857 8.03237 8.5099 7.49758 8.5099Z"></path>
  </symbol>
   <symbol fill="none" xmlns="http://www.w3.org/2000/svg" viewBox="0 0 21 17" id="tikets">
    <path d="M8.75 5V4.125M8.75 8.9375V8.0625M8.75 12.875V12M4.55 1.5H16.45C17.4301 1.5 17.9201 1.5 18.2945 1.69074C18.6238 1.85852 18.8915 2.12623 19.0593 2.45552C19.25 2.82986 19.25 3.31991 19.25 4.3V5.4375C17.5586 5.4375 16.1875 6.80863 16.1875 8.5C16.1875 10.1914 17.5586 11.5625 19.25 11.5625V12.7C19.25 13.6801 19.25 14.1701 19.0593 14.5445C18.8915 14.8738 18.6238 15.1415 18.2945 15.3093C17.9201 15.5 17.4301 15.5 16.45 15.5H4.55C3.56991 15.5 3.07986 15.5 2.70552 15.3093C2.37623 15.1415 2.10852 14.8738 1.94074 14.5445C1.75 14.1701 1.75 13.6801 1.75 12.7V11.5625C3.44137 11.5625 4.8125 10.1914 4.8125 8.5C4.8125 6.80863 3.44137 5.4375 1.75 5.4375V4.3C1.75 3.31991 1.75 2.82986 1.94074 2.45552C2.10852 2.12623 2.37623 1.85852 2.70552 1.69074C3.07986 1.5 3.56991 1.5 4.55 1.5Z" stroke="#2B3639" stroke-width="2" stroke-linecap="round" stroke-linejoin="round"></path>
  </symbol>
  <symbol fill="none" xmlns="http://www.w3.org/2000/svg" viewBox="0 0 19 18" id="faq">
    <path d="M8.18717 6.87696C8.34134 6.43869 8.64565 6.06913 9.04619 5.83373C9.44673 5.59833 9.91766 5.51228 10.3756 5.59082C10.8335 5.66936 11.2488 5.90743 11.548 6.26286C11.8472 6.61828 12.011 7.06813 12.0103 7.53272C12.0103 8.84424 10.043 9.5 10.043 9.5M10.0683 12.125H10.0771M9.93717 16.5C14.0448 16.5 17.3747 13.1701 17.3747 9.0625C17.3747 4.95488 14.0448 1.625 9.93717 1.625C5.82955 1.625 2.49967 4.95488 2.49967 9.0625C2.49967 9.89375 2.63604 10.6931 2.88762 11.4395C2.9823 11.7204 3.02963 11.8609 3.03817 11.9687C3.0466 12.0753 3.04023 12.15 3.01387 12.2536C2.98718 12.3585 2.92824 12.4675 2.81038 12.6857L1.37918 15.3348C1.17503 15.7127 1.07296 15.9016 1.0958 16.0474C1.1157 16.1744 1.19045 16.2863 1.3002 16.3532C1.4262 16.4301 1.63981 16.408 2.06702 16.3638L6.54792 15.9006C6.68361 15.8866 6.75146 15.8796 6.8133 15.882C6.87412 15.8843 6.91706 15.89 6.97638 15.9037C7.03668 15.9176 7.11252 15.9468 7.26418 16.0052C8.09373 16.3248 8.99499 16.5 9.93717 16.5Z" stroke="#2B3639" stroke-width="2" stroke-linecap="round" stroke-linejoin="round"></path>
  </symbol>
  <symbol fill="none" xmlns="http://www.w3.org/2000/svg" viewBox="0 0 21 21" id="profile">
    <path d="M4.65176 17.0086C5.18404 15.7546 6.42681 14.875 7.875 14.875H13.125C14.5732 14.875 15.816 15.7546 16.3482 17.0086M14 8.3125C14 10.2455 12.433 11.8125 10.5 11.8125C8.567 11.8125 7 10.2455 7 8.3125C7 6.3795 8.567 4.8125 10.5 4.8125C12.433 4.8125 14 6.3795 14 8.3125ZM19.25 10.5C19.25 15.3325 15.3325 19.25 10.5 19.25C5.66751 19.25 1.75 15.3325 1.75 10.5C1.75 5.66751 5.66751 1.75 10.5 1.75C15.3325 1.75 19.25 5.66751 19.25 10.5Z" stroke="#2B3639" stroke-width="2" stroke-linecap="round" stroke-linejoin="round"></path>
  </symbol>
  <symbol fill="none" xmlns="http://www.w3.org/2000/svg" viewBox="0 0 16 22" id="monkey">
    <path d="M9.49544 7.92012C8.48905 8.26876 7.94777 8.11348 7.94777 8.11348C7.94777 8.11348 7.40576 8.26803 6.40011 7.92012C5.39373 7.57147 1.75639 7.3012 0.517822 8.34567L0.71119 9.11987H0.892103C0.892103 9.11987 1.33084 12.5638 3.66515 12.5638C6.0002 12.5638 5.16154 10.086 6.55466 10.086C7.2644 10.086 7.19995 10.6675 7.94777 10.6675C8.6956 10.6675 8.63115 10.086 9.34089 10.086C10.734 10.086 9.89535 12.5638 12.2304 12.5638C14.5654 12.5638 15.0034 9.11987 15.0034 9.11987H15.1844L15.3777 8.34567C14.1392 7.3012 10.5018 7.57221 9.49544 7.92012Z" fill="#FF6A6A"></path>
    <path d="M6.72133 10.9385C5.9735 10.6031 5.66367 11.4029 6.15368 11.8929C6.64369 12.3829 7.46916 12.5638 7.46916 12.5638C7.46916 12.5638 7.46915 11.274 6.72133 10.9385Z" fill="black"></path>
    <path d="M9.11936 10.9385C8.37153 11.274 8.37153 12.5638 8.37153 12.5638C8.37153 12.5638 9.197 12.3829 9.68701 11.8929C10.177 11.4029 9.86719 10.6031 9.11936 10.9385Z" fill="black"></path>
    <path d="M15.051 11.6351C15.051 11.6351 14.1735 13.5702 11.6583 13.2355C11.6583 13.2355 12.7804 15.5317 12.1095 16.3315C11.4393 17.1306 10.7427 15.8943 7.94622 15.8928H7.94329C5.1468 15.8935 4.45097 17.1306 3.78005 16.3315C3.10913 15.5317 4.23124 13.2355 4.23124 13.2355C1.71601 13.5709 0.838541 11.6351 0.838541 11.6351C-0.296754 17.001 1.63837 18.4981 1.50946 17.9305C1.38055 17.3628 2.3298 18.5347 3.34132 19.7103C4.29569 20.82 3.85696 19.4005 4.08914 19.6327C5.2845 21.6667 7.86858 21.7963 7.94255 21.8H7.94548C8.01946 21.7971 10.6035 21.6674 11.7989 19.6327C12.0311 19.4005 11.5923 20.8193 12.5467 19.7103C13.5582 18.5347 14.5075 17.3628 14.3786 17.9305C14.2511 18.4981 16.1863 17.0003 15.051 11.6351ZM10.4094 18.4849C9.92016 17.7378 9.40818 17.5708 7.93962 17.5701C6.4718 17.5708 5.95908 17.7378 5.46981 18.4849C4.9798 19.2328 3.32886 18.1238 4.51543 17.2727C5.65072 16.4583 7.75212 16.4114 7.93303 16.4085C7.93303 16.4085 7.93523 16.4085 7.93962 16.4085C7.94402 16.4085 7.94622 16.4085 7.94622 16.4085C8.12713 16.4106 10.2285 16.4583 11.3638 17.2727C12.5511 18.1238 10.8994 19.2328 10.4094 18.4849Z" fill="#5A5959"></path>
    <path d="M8.1579 14.5956C8.04217 14.1313 7.94695 13.4347 7.94695 13.4347C7.94695 13.4347 7.85027 14.1313 7.73381 14.5956C7.61808 15.0585 7.79021 15.2329 7.94475 15.2336H7.94622C8.10076 15.2329 8.27362 15.0585 8.1579 14.5956Z" fill="#5A5959"></path>
    <path d="M3.26458 6.42373C3.1613 6.19154 4.88988 6.70718 5.12206 6.75919C5.35425 6.81046 4.91551 6.29481 5.12206 6.24354C5.32862 6.19227 6.51298 7.42791 7.94346 7.43011H7.94638C9.37686 7.42791 10.562 6.19227 10.7678 6.24354C10.9743 6.29481 10.5356 6.81119 10.7678 6.75919C11 6.70792 12.7285 6.19154 12.6253 6.42373C12.522 6.65591 12.3674 6.83683 12.3674 6.83683C13.2185 6.83683 14.638 7.09465 14.638 7.09465C14.4835 -0.108246 7.98301 -0.000576679 7.94492 0.000155769C7.90683 -0.000576679 1.40636 -0.107513 1.25181 7.09465C1.25181 7.09465 2.67056 6.83683 3.5224 6.83683C3.5224 6.83683 3.36785 6.65591 3.26458 6.42373Z" fill="#5A5959"></path>
  </symbol>
  <symbol fill="none" xmlns="http://www.w3.org/2000/svg" viewBox="0 0 21 21" id="qr">
    <path d="M5 11H10V16M1.01 11H1M6.01 16H6M10.01 20H10M19.01 11H19M1 16H2.5M13.5 11H15.5M1 20H6M10 1V7M15.6 20H17.4C17.9601 20 18.2401 20 18.454 19.891C18.6422 19.7951 18.7951 19.6422 18.891 19.454C19 19.2401 19 18.9601 19 18.4V16.6C19 16.0399 19 15.7599 18.891 15.546C18.7951 15.3578 18.6422 15.2049 18.454 15.109C18.2401 15 17.9601 15 17.4 15H15.6C15.0399 15 14.7599 15 14.546 15.109C14.3578 15.2049 14.2049 15.3578 14.109 15.546C14 15.7599 14 16.0399 14 16.6V18.4C14 18.9601 14 19.2401 14.109 19.454C14.2049 19.6422 14.3578 19.7951 14.546 19.891C14.7599 20 15.0399 20 15.6 20ZM15.6 7H17.4C17.9601 7 18.2401 7 18.454 6.89101C18.6422 6.79513 18.7951 6.64215 18.891 6.45399C19 6.24008 19 5.96005 19 5.4V3.6C19 3.03995 19 2.75992 18.891 2.54601C18.7951 2.35785 18.6422 2.20487 18.454 2.10899C18.2401 2 17.9601 2 17.4 2H15.6C15.0399 2 14.7599 2 14.546 2.10899C14.3578 2.20487 14.2049 2.35785 14.109 2.54601C14 2.75992 14 3.03995 14 3.6V5.4C14 5.96005 14 6.24008 14.109 6.45399C14.2049 6.64215 14.3578 6.79513 14.546 6.89101C14.7599 7 15.0399 7 15.6 7ZM2.6 7H4.4C4.96005 7 5.24008 7 5.45399 6.89101C5.64215 6.79513 5.79513 6.64215 5.89101 6.45399C6 6.24008 6 5.96005 6 5.4V3.6C6 3.03995 6 2.75992 5.89101 2.54601C5.79513 2.35785 5.64215 2.20487 5.45399 2.10899C5.24008 2 4.96005 2 4.4 2H2.6C2.03995 2 1.75992 2 1.54601 2.10899C1.35785 2.20487 1.20487 2.35785 1.10899 2.54601C1 2.75992 1 3.03995 1 3.6V5.4C1 5.96005 1 6.24008 1.10899 6.45399C1.20487 6.64215 1.35785 6.79513 1.54601 6.89101C1.75992 7 2.03995 7 2.6 7Z" stroke="#2B3639" stroke-width="2" stroke-linecap="round" stroke-linejoin="round"></path>
  </symbol>
</svg>