<svg width="64" height="64" viewBox="0 0 64 64" fill="none" xmlns="http://www.w3.org/2000/svg">
<path d="M34.6338 25.4652C32.8565 26.0809 31.9006 25.8067 31.9006 25.8067C31.9006 25.8067 30.9434 26.0796 29.1674 25.4652C27.3902 24.8495 20.9666 24.3722 18.7793 26.2167L19.1208 27.584H19.4403C19.4403 27.584 20.2151 33.666 24.3375 33.666C28.4612 33.666 26.9801 29.2901 29.4404 29.2901C30.6938 29.2901 30.5799 30.3171 31.9006 30.3171C33.2213 30.3171 33.1074 29.2901 34.3609 29.2901C36.8211 29.2901 35.34 33.666 39.4637 33.666C43.5874 33.666 44.3609 27.584 44.3609 27.584H44.6804L45.0219 26.2167C42.8346 24.3722 36.4111 24.8508 34.6338 25.4652Z" fill="black"/>
<path d="M29.7361 30.7957C28.4154 30.2033 27.8683 31.6158 28.7336 32.4812C29.599 33.3465 31.0568 33.666 31.0568 33.666C31.0568 33.666 31.0568 31.3882 29.7361 30.7957Z" fill="black"/>
<path d="M33.971 30.7957C32.6504 31.3882 32.6504 33.666 32.6504 33.666C32.6504 33.666 34.1081 33.3465 34.9735 32.4812C35.8389 31.6158 35.2917 30.2033 33.971 30.7957Z" fill="black"/>
<path d="M44.4462 32.0261C44.4462 32.0261 42.8966 35.4435 38.4547 34.8524C38.4547 34.8524 40.4364 38.9075 39.2515 40.32C38.068 41.7313 36.8378 39.5478 31.8992 39.5452H31.8941C26.9555 39.5465 25.7266 41.7313 24.5418 40.32C23.3569 38.9075 25.3386 34.8524 25.3386 34.8524C20.8967 35.4448 19.3471 32.0261 19.3471 32.0261C17.3422 41.5023 20.7596 44.1462 20.5319 43.1438C20.3043 42.1413 21.9807 44.2109 23.767 46.287C25.4524 48.2466 24.6776 45.7398 25.0877 46.1499C27.1987 49.7419 31.7621 49.9709 31.8928 49.9773H31.898C32.0286 49.9722 36.5921 49.7432 38.7031 46.1499C39.1131 45.7398 38.3383 48.2453 40.0237 46.287C41.8101 44.2109 43.4865 42.1413 43.2588 43.1438C43.0337 44.1462 46.4512 41.501 44.4462 32.0261ZM36.2493 44.1229C35.3852 42.8036 34.4811 42.5087 31.8876 42.5074C29.2954 42.5087 28.39 42.8036 27.5259 44.1229C26.6606 45.4436 23.745 43.4852 25.8405 41.9822C27.8454 40.5438 31.5565 40.461 31.876 40.4559C31.876 40.4559 31.8798 40.4559 31.8876 40.4559C31.8954 40.4559 31.8992 40.4559 31.8992 40.4559C32.2187 40.4597 35.9298 40.5438 37.9347 41.9822C40.0315 43.4852 37.1147 45.4436 36.2493 44.1229Z" fill="#5A5959"/>
<path d="M32.2731 37.2544C32.0687 36.4344 31.9005 35.2042 31.9005 35.2042C31.9005 35.2042 31.7298 36.4344 31.5241 37.2544C31.3198 38.0719 31.6237 38.3798 31.8967 38.3811H31.8993C32.1722 38.3798 32.4774 38.0719 32.2731 37.2544Z" fill="#5A5959"/>
<path d="M23.6315 22.8228C23.4491 22.4128 26.5018 23.3234 26.9118 23.4152C27.3218 23.5058 26.547 22.5952 26.9118 22.5046C27.2766 22.4141 29.3682 24.5962 31.8944 24.6001H31.8995C34.4258 24.5962 36.5186 22.4141 36.8821 22.5046C37.2469 22.5952 36.4721 23.5071 36.8821 23.4152C37.2922 23.3247 40.3448 22.4128 40.1624 22.8228C39.9801 23.2329 39.7071 23.5524 39.7071 23.5524C41.2102 23.5524 43.717 24.0077 43.717 24.0077C43.4441 11.2874 31.9642 11.4775 31.897 11.4788C31.8297 11.4775 20.3498 11.2886 20.0769 24.0077C20.0769 24.0077 22.5824 23.5524 24.0868 23.5524C24.0868 23.5524 23.8139 23.2329 23.6315 22.8228Z" fill="#5A5959"/>
<path d="M31.9985 61.1739C27.2333 61.1739 22.5068 60.0007 18.3275 57.7797L17.0029 60.2723C21.5871 62.7093 26.7728 63.9976 31.9985 63.9976C37.4791 63.9976 42.8872 62.5877 47.6396 59.9205C52.2444 57.3361 56.178 53.6134 59.0146 49.1534L56.632 47.6387C51.2394 56.1137 42.0309 61.1739 31.9985 61.1739Z" fill="#ED696C"/>
<path d="M2.82372 31.9987C2.82372 27.5051 3.81713 23.1964 5.77808 19.1904L3.24281 17.9487C1.09042 22.3453 0 27.0718 0 31.9987C0 41.7284 4.40438 50.8489 11.9041 56.9025L9.46198 60.5683L11.7774 62.1102L15.7096 56.2066L15.6721 56.1821C7.6265 50.739 2.82372 41.7013 2.82372 31.9987Z" fill="#5A5959"/>
<path d="M51.9782 7.00174L54.5755 3.10182L52.2602 1.55997L48.3279 7.46352L48.3305 7.46481L48.1675 7.70929C56.3127 13.142 61.175 22.2211 61.175 31.9987C61.175 36.5467 60.1583 40.9032 58.1534 44.9454L60.6835 46.2001C62.8837 41.7634 64 36.9852 64 31.9987C63.9974 22.2082 59.5516 13.054 51.9782 7.00174Z" fill="#5A5959"/>
<path d="M31.9987 2.82372C36.773 2.82372 41.5086 4.0021 45.693 6.23081L47.0202 3.73952C42.4282 1.29221 37.2348 0 31.9987 0C26.5272 0 21.1268 1.40604 16.3809 4.06419C11.7825 6.64085 7.85028 10.3532 5.01104 14.799L7.39108 16.3189C12.7863 7.86839 21.9857 2.82372 31.9987 2.82372Z" fill="#5A5959"/>
</svg>
